<svg width="1440" height="164" viewBox="0 0 1440 164" fill="none" xmlns="http://www.w3.org/2000/svg">
<g opacity="0.6">
<path d="M1407.35 161.089C1406.48 157.896 1405.82 154.486 1405.39 150.858C1405.1 147.23 1404.95 143.021 1404.95 138.232H1404.08V85.7692C1404.08 81.2704 1402.56 77.7874 1399.51 75.3202C1396.61 72.708 1392.25 71.4019 1386.45 71.4019C1380.93 71.4019 1376.51 72.3452 1373.17 74.2318C1369.98 76.1184 1367.87 78.8758 1366.86 82.5039H1335.73C1337.18 72.4903 1342.33 64.2182 1351.18 57.6876C1360.04 51.1569 1372.15 47.8916 1387.54 47.8916C1403.5 47.8916 1415.69 51.4472 1424.11 58.5583C1432.53 65.6694 1436.73 75.9007 1436.73 89.2523V138.232C1436.73 141.86 1436.95 145.561 1437.39 149.334C1437.97 152.962 1438.84 156.881 1440 161.089H1407.35ZM1368.6 163.266C1357.57 163.266 1348.79 160.509 1342.26 154.994C1335.73 149.334 1332.46 141.86 1332.46 132.572C1332.46 122.268 1336.31 113.996 1344 107.756C1351.84 101.37 1362.72 97.2341 1376.65 95.3475L1409.09 90.7761V109.715L1382.1 113.851C1376.29 114.722 1372.01 116.318 1369.25 118.64C1366.49 120.962 1365.12 124.155 1365.12 128.218C1365.12 131.846 1366.42 134.604 1369.03 136.49C1371.65 138.377 1375.13 139.32 1379.48 139.32C1386.3 139.32 1392.11 137.506 1396.9 133.878C1401.69 130.105 1404.08 125.751 1404.08 120.817L1407.13 138.232C1403.94 146.504 1399.07 152.744 1392.54 156.953C1386.01 161.162 1378.03 163.266 1368.6 163.266Z" fill="#D7DBDA"/>
<path d="M1304.73 163.484C1290.51 163.484 1279.92 160.073 1272.95 153.252C1266.13 146.286 1262.72 135.765 1262.72 121.688V25.252L1295.37 13.0615V122.776C1295.37 127.71 1296.75 131.411 1299.51 133.878C1302.27 136.345 1306.55 137.579 1312.35 137.579C1314.53 137.579 1316.56 137.361 1318.45 136.926C1320.33 136.49 1322.22 135.982 1324.11 135.402V160.218C1322.22 161.234 1319.54 162.032 1316.05 162.613C1312.71 163.193 1308.94 163.484 1304.73 163.484ZM1242.04 74.8848V50.0684H1324.11V74.8848H1242.04Z" fill="#D7DBDA"/>
<path d="M1209.3 161.089C1208.43 157.896 1207.78 154.486 1207.34 150.858C1207.05 147.23 1206.91 143.021 1206.91 138.232H1206.04V85.7692C1206.04 81.2704 1204.51 77.7874 1201.47 75.3202C1198.56 72.708 1194.21 71.4019 1188.4 71.4019C1182.89 71.4019 1178.46 72.3452 1175.13 74.2318C1171.93 76.1184 1169.83 78.8758 1168.81 82.5039H1137.68C1139.13 72.4903 1144.29 64.2182 1153.14 57.6876C1161.99 51.1569 1174.11 47.8916 1189.49 47.8916C1205.46 47.8916 1217.65 51.4472 1226.06 58.5583C1234.48 65.6694 1238.69 75.9007 1238.69 89.2523V138.232C1238.69 141.86 1238.91 145.561 1239.34 149.334C1239.92 152.962 1240.79 156.881 1241.96 161.089H1209.3ZM1170.55 163.266C1159.52 163.266 1150.74 160.509 1144.21 154.994C1137.68 149.334 1134.42 141.86 1134.42 132.572C1134.42 122.268 1138.26 113.996 1145.96 107.756C1153.79 101.37 1164.68 97.2341 1178.61 95.3475L1211.04 90.7761V109.715L1184.05 113.851C1178.25 114.722 1173.96 116.318 1171.21 118.64C1168.45 120.962 1167.07 124.155 1167.07 128.218C1167.07 131.846 1168.38 134.604 1170.99 136.49C1173.6 138.377 1177.08 139.32 1181.44 139.32C1188.26 139.32 1194.06 137.506 1198.85 133.878C1203.64 130.105 1206.04 125.751 1206.04 120.817L1209.08 138.232C1205.89 146.504 1201.03 152.744 1194.5 156.953C1187.97 161.162 1179.99 163.266 1170.55 163.266Z" fill="#D7DBDA"/>
<path d="M1060.81 161.089V50.0685H1092.81V76.191H1093.46V161.089H1060.81ZM1093.46 103.184L1090.63 76.8441C1093.25 67.4109 1097.53 60.2272 1103.48 55.293C1109.43 50.3587 1116.83 47.8916 1125.68 47.8916C1128.44 47.8916 1130.47 48.1818 1131.78 48.7624V79.2386C1131.05 78.9484 1130.04 78.8032 1128.73 78.8032C1127.42 78.6581 1125.83 78.5856 1123.94 78.5856C1113.49 78.5856 1105.8 80.4722 1100.87 84.2454C1095.93 87.8736 1093.46 94.1865 1093.46 103.184Z" fill="#D7DBDA"/>
<path d="M1025.95 163.484C1011.73 163.484 1001.13 160.073 994.166 153.252C987.345 146.286 983.934 135.765 983.934 121.688V25.252L1016.59 13.0615V122.776C1016.59 127.71 1017.97 131.411 1020.72 133.878C1023.48 136.345 1027.76 137.579 1033.57 137.579C1035.74 137.579 1037.78 137.361 1039.66 136.926C1041.55 136.49 1043.44 135.982 1045.32 135.402V160.218C1043.44 161.234 1040.75 162.032 1037.27 162.613C1033.93 163.193 1030.16 163.484 1025.95 163.484ZM963.254 74.8848V50.0684H1045.32V74.8848H963.254Z" fill="#D7DBDA"/>
<path d="M898.664 163.048C878.346 163.048 862.092 158.549 849.902 149.551C837.711 140.409 830.6 127.565 828.568 111.021H860.786C861.802 119.438 865.865 126.114 872.977 131.048C880.088 135.837 889.158 138.232 900.188 138.232C909.185 138.232 916.079 136.635 920.868 133.443C925.802 130.25 928.269 125.969 928.269 120.599C928.269 115.52 926.818 111.456 923.915 108.408C921.013 105.216 916.006 102.676 908.895 100.789L879.725 92.735C864.777 88.5263 853.82 82.7939 846.854 75.5376C840.033 68.1362 836.623 58.9208 836.623 47.8913C836.623 38.4582 839.017 30.3312 843.806 23.5103C848.741 16.5443 855.634 11.2472 864.487 7.6191C873.339 3.84585 883.716 1.95923 895.616 1.95923C913.902 1.95923 928.487 6.31298 939.371 15.0205C950.256 23.5829 956.424 34.9752 957.875 49.1974H925.657C924.206 41.5058 920.65 35.8459 914.99 32.2178C909.476 28.5897 902.364 26.7756 893.657 26.7756C886.11 26.7756 880.088 28.2269 875.589 31.1294C871.09 34.0319 868.841 37.9502 868.841 42.8845C868.841 46.6577 870.074 50.1407 872.541 53.3335C875.008 56.3811 880.16 58.9934 887.997 61.1703L917.167 69.2247C932.55 73.4333 943.58 79.2383 950.256 86.6397C957.077 93.896 960.487 103.111 960.487 114.286C960.487 129.96 955.045 142.005 944.16 150.422C933.276 158.839 918.11 163.048 898.664 163.048Z" fill="#D7DBDA"/>
<path d="M668.335 161.089V50.0685H700.335V76.191H700.988V161.089H668.335ZM745.614 161.089V92.2999C745.614 86.2046 744.018 81.6332 740.825 78.5856C737.777 75.5379 733.278 74.0141 727.328 74.0141C722.249 74.0141 717.677 75.1751 713.614 77.4971C709.696 79.8191 706.575 83.0119 704.253 87.0754C702.077 91.1389 700.988 95.928 700.988 101.443L698.158 74.6672C701.786 66.5402 707.083 60.0821 714.049 55.293C721.16 50.3587 729.868 47.8916 740.172 47.8916C752.508 47.8916 761.941 51.3746 768.471 58.3406C775.002 65.1615 778.267 74.3769 778.267 85.9869V161.089H745.614Z" fill="#D7DBDA"/>
<path d="M593.719 163.266C581.528 163.266 570.789 160.871 561.501 156.082C552.358 151.148 545.175 144.327 539.95 135.62C534.871 126.767 532.331 116.608 532.331 105.143C532.331 93.6786 534.871 83.6649 539.95 75.1026C545.175 66.5402 552.358 59.8644 561.501 55.0753C570.789 50.2862 581.528 47.8916 593.719 47.8916C606.055 47.8916 616.794 50.2862 625.937 55.0753C635.225 59.8644 642.408 66.5402 647.488 75.1026C652.567 83.6649 655.107 93.6786 655.107 105.143C655.107 116.608 652.495 126.767 647.27 135.62C642.191 144.327 635.007 151.148 625.719 156.082C616.576 160.871 605.909 163.266 593.719 163.266ZM593.719 137.579C598.798 137.579 603.37 136.273 607.433 133.661C611.642 131.048 614.98 127.348 617.447 122.558C619.914 117.624 621.148 111.747 621.148 104.926C621.148 94.9121 618.463 87.2205 613.093 81.8509C607.869 76.3361 601.411 73.5787 593.719 73.5787C586.027 73.5787 579.497 76.3361 574.127 81.8509C568.903 87.3656 566.29 95.0573 566.29 104.926C566.29 111.747 567.524 117.624 569.991 122.558C572.458 127.348 575.723 131.048 579.787 133.661C583.996 136.273 588.64 137.579 593.719 137.579Z" fill="#D7DBDA"/>
<path d="M449.641 161.089V136.491L451.818 136.926C450.366 144.908 446.013 151.293 438.756 156.083C431.645 160.872 423.083 163.266 413.069 163.266C402.91 163.266 394.058 160.944 386.511 156.3C379.11 151.511 373.378 144.835 369.314 136.273C365.251 127.711 363.219 117.624 363.219 106.014C363.219 94.2592 365.323 84.0279 369.532 75.3204C373.74 66.6129 379.618 59.8646 387.164 55.0755C394.856 50.2863 403.781 47.8918 413.94 47.8918C424.534 47.8918 433.096 50.3589 439.627 55.2932C446.303 60.2274 450.221 66.9757 451.382 75.5381L448.988 75.7558V4.35425H481.641V161.089H449.641ZM423.518 137.144C431.21 137.144 437.45 134.459 442.239 129.089C447.029 123.575 449.423 115.738 449.423 105.579C449.423 95.4202 446.956 87.656 442.022 82.2864C437.233 76.7717 430.92 74.0143 423.083 74.0143C415.536 74.0143 409.296 76.7717 404.362 82.2864C399.573 87.8012 397.178 95.6379 397.178 105.797C397.178 115.955 399.573 123.72 404.362 129.089C409.296 134.459 415.681 137.144 423.518 137.144Z" fill="#D7DBDA"/>
<path d="M316.463 161.089V4.35425H349.117V161.089H316.463Z" fill="#D7DBDA"/>
<path d="M261.872 161.089V50.0681H294.525V161.089H261.872ZM260.783 35.2654V0H295.613V35.2654H260.783Z" fill="#D7DBDA"/>
<path d="M173.682 163.266C165.845 163.266 159.097 161.597 153.437 158.259C147.922 154.776 143.714 150.204 140.811 144.545C137.909 138.74 136.458 132.281 136.458 125.17V50.0681H169.111V118.857C169.111 124.953 170.634 129.524 173.682 132.572C176.73 135.619 181.011 137.143 186.526 137.143C191.46 137.143 195.814 135.982 199.587 133.66C203.36 131.338 206.335 128.145 208.512 124.082C210.834 119.873 211.995 115.084 211.995 109.715L214.825 136.49C211.197 144.472 205.9 150.93 198.934 155.864C191.968 160.799 183.551 163.266 173.682 163.266ZM212.648 161.089V134.966H211.995V50.0681H244.648V161.089H212.648Z" fill="#D7DBDA"/>
<path d="M27.4286 161.089V137.144H67.9185C75.1748 137.144 80.617 135.185 84.2451 131.266C88.0184 127.203 89.905 121.615 89.905 114.504C89.905 107.248 87.8732 101.515 83.8097 97.3069C79.8914 93.0982 74.2315 90.9939 66.8301 90.9939H27.4286V67.0483H65.0886C71.9095 67.0483 77.0614 65.4519 80.5444 62.2592C84.1726 58.9213 85.9866 54.0596 85.9866 47.6741C85.9866 41.2886 84.2451 36.4995 80.7621 33.3067C77.4242 29.9688 72.4174 28.2999 65.7417 28.2999H27.4286V4.35425H72.9254C86.8574 4.35425 98.1046 7.90981 106.667 15.0209C115.229 22.1321 119.511 31.7829 119.511 43.9734C119.511 51.665 117.696 58.2682 114.068 63.783C110.44 69.2977 105.578 73.5064 99.4832 76.4089C93.388 79.3114 86.5671 80.7626 79.0206 80.7626L80.1091 76.1912C88.2361 76.1912 95.5649 77.9327 102.096 81.4157C108.771 84.8987 114.068 89.8329 117.987 96.2184C121.905 102.459 123.864 109.86 123.864 118.423C123.864 126.985 121.833 134.531 117.769 141.062C113.851 147.448 108.263 152.382 101.007 155.865C93.8959 159.348 85.4787 161.089 75.7553 161.089H27.4286ZM0 161.089V4.35425H33.5239V161.089H0Z" fill="#D7DBDA"/>
</g>
</svg>
