<svg width="1440" height="176" viewBox="0 0 1440 176" fill="none" xmlns="http://www.w3.org/2000/svg">
<g opacity="0.6">
<path d="M1411.98 137.185C1411.23 134.445 1410.67 131.518 1410.3 128.404C1410.05 125.29 1409.92 121.679 1409.92 117.569H1409.18V72.5454C1409.18 68.6845 1407.87 65.6954 1405.25 63.5782C1402.76 61.3363 1399.02 60.2154 1394.04 60.2154C1389.31 60.2154 1385.51 61.025 1382.65 62.6441C1379.91 64.2632 1378.1 66.6295 1377.23 69.7432H1350.51C1351.76 61.1495 1356.18 54.0504 1363.78 48.4459C1371.38 42.8413 1381.78 40.0391 1394.98 40.0391C1408.68 40.0391 1419.14 43.0904 1426.36 49.1932C1433.59 55.2959 1437.2 64.0763 1437.2 75.5345V117.569C1437.2 120.682 1437.38 123.858 1437.76 127.096C1438.26 130.21 1439 133.573 1440 137.185H1411.98ZM1378.72 139.053C1369.26 139.053 1361.72 136.686 1356.12 131.954C1350.51 127.096 1347.71 120.682 1347.71 112.711C1347.71 103.869 1351.01 96.7695 1357.61 91.4141C1364.34 85.9341 1373.68 82.3845 1385.64 80.7654L1413.47 76.8422V93.0954L1390.31 96.645C1385.32 97.3922 1381.65 98.7622 1379.28 100.755C1376.92 102.748 1375.73 105.488 1375.73 108.975C1375.73 112.089 1376.86 114.455 1379.1 116.074C1381.34 117.693 1384.33 118.503 1388.06 118.503C1393.92 118.503 1398.9 116.946 1403.01 113.832C1407.12 110.594 1409.18 106.858 1409.18 102.623L1411.79 117.569C1409.05 124.668 1404.88 130.023 1399.27 133.635C1393.67 137.247 1386.82 139.053 1378.72 139.053Z" fill="#D7DBDA"/>
<path d="M1323.91 139.241C1311.71 139.241 1302.62 136.314 1296.64 130.46C1290.79 124.482 1287.86 115.453 1287.86 103.372V20.6112L1315.88 10.1494V104.306C1315.88 108.54 1317.06 111.716 1319.43 113.833C1321.8 115.951 1325.47 117.009 1330.45 117.009C1332.32 117.009 1334.07 116.823 1335.68 116.449C1337.3 116.075 1338.92 115.639 1340.54 115.141V136.438C1338.92 137.31 1336.62 137.995 1333.63 138.493C1330.76 138.992 1327.53 139.241 1323.91 139.241ZM1270.11 63.2058V41.9085H1340.54V63.2058H1270.11Z" fill="#D7DBDA"/>
<path d="M1242.02 137.185C1241.27 134.445 1240.71 131.518 1240.34 128.404C1240.09 125.29 1239.96 121.679 1239.96 117.569H1239.21V72.5454C1239.21 68.6845 1237.91 65.6954 1235.29 63.5782C1232.8 61.3363 1229.06 60.2154 1224.08 60.2154C1219.35 60.2154 1215.55 61.025 1212.69 62.6441C1209.95 64.2632 1208.14 66.6295 1207.27 69.7432H1180.55C1181.8 61.1495 1186.22 54.0504 1193.82 48.4459C1201.41 42.8413 1211.81 40.0391 1225.02 40.0391C1238.72 40.0391 1249.18 43.0904 1256.4 49.1932C1263.63 55.2959 1267.24 64.0763 1267.24 75.5345V117.569C1267.24 120.682 1267.42 123.858 1267.8 127.096C1268.3 130.21 1269.04 133.573 1270.04 137.185H1242.02ZM1208.76 139.053C1199.3 139.053 1191.76 136.686 1186.16 131.954C1180.55 127.096 1177.75 120.682 1177.75 112.711C1177.75 103.869 1181.05 96.7695 1187.65 91.4141C1194.38 85.9341 1203.72 82.3845 1215.68 80.7654L1243.51 76.8422V93.0954L1220.35 96.645C1215.36 97.3922 1211.69 98.7622 1209.32 100.755C1206.96 102.748 1205.77 105.488 1205.77 108.975C1205.77 112.089 1206.89 114.455 1209.14 116.074C1211.38 117.693 1214.37 118.503 1218.1 118.503C1223.96 118.503 1228.94 116.946 1233.05 113.832C1237.16 110.594 1239.21 106.858 1239.21 102.623L1241.83 117.569C1239.09 124.668 1234.92 130.023 1229.31 133.635C1223.71 137.247 1216.86 139.053 1208.76 139.053Z" fill="#D7DBDA"/>
<path d="M1114.58 137.185V41.9072H1142.04V64.3254H1142.6V137.185H1114.58ZM1142.6 87.4909L1140.18 64.8859C1142.42 56.7904 1146.09 50.6254 1151.2 46.3909C1156.3 42.1563 1162.66 40.0391 1170.25 40.0391C1172.62 40.0391 1174.36 40.2882 1175.48 40.7863V66.9409C1174.86 66.6918 1173.99 66.5672 1172.87 66.5672C1171.75 66.4427 1170.38 66.3804 1168.76 66.3804C1159.79 66.3804 1153.19 67.9995 1148.96 71.2377C1144.72 74.3513 1142.6 79.7691 1142.6 87.4909Z" fill="#D7DBDA"/>
<path d="M1084.66 139.241C1072.46 139.241 1063.37 136.314 1057.39 130.46C1051.53 124.482 1048.61 115.453 1048.61 103.372V20.6112L1076.63 10.1494V104.306C1076.63 108.54 1077.81 111.716 1080.18 113.833C1082.55 115.951 1086.22 117.009 1091.2 117.009C1093.07 117.009 1094.81 116.823 1096.43 116.449C1098.05 116.075 1099.67 115.639 1101.29 115.141V136.438C1099.67 137.31 1097.37 137.995 1094.38 138.493C1091.51 138.992 1088.27 139.241 1084.66 139.241ZM1030.86 63.2058V41.9085H1101.29V63.2058H1030.86Z" fill="#D7DBDA"/>
<path d="M975.429 138.867C957.992 138.867 944.043 135.006 933.582 127.284C923.12 119.437 917.017 108.415 915.273 94.217H942.923C943.794 101.441 947.282 107.17 953.384 111.404C959.487 115.514 967.271 117.569 976.737 117.569C984.458 117.569 990.374 116.199 994.484 113.459C998.719 110.719 1000.84 107.045 1000.84 102.437C1000.84 98.0779 999.591 94.5906 997.1 91.9752C994.609 89.2352 990.312 87.0556 984.209 85.4365L959.176 78.5243C946.347 74.9124 936.944 69.9929 930.966 63.7656C925.113 57.4138 922.186 49.5052 922.186 40.0397C922.186 31.9443 924.241 24.9697 928.351 19.1161C932.585 13.1379 938.501 8.592 946.098 5.47836C953.696 2.24018 962.601 0.621094 972.813 0.621094C988.506 0.621094 1001.02 4.35745 1010.36 11.8302C1019.7 19.1784 1025 28.9552 1026.24 41.1606H998.594C997.349 34.5597 994.297 29.7024 989.44 26.5888C984.707 23.4752 978.605 21.9184 971.132 21.9184C964.656 21.9184 959.487 23.1638 955.626 25.6547C951.765 28.1456 949.835 31.5084 949.835 35.7429C949.835 38.9811 950.893 41.9702 953.011 44.7102C955.128 47.3256 959.549 49.5674 966.275 51.4356L991.308 58.3479C1004.51 61.9597 1013.98 66.9415 1019.7 73.2934C1025.56 79.5206 1028.49 87.4293 1028.49 97.0192C1028.49 110.47 1023.81 120.807 1014.47 128.031C1005.13 135.255 992.118 138.867 975.429 138.867Z" fill="#D7DBDA"/>
<path d="M796.849 175.483L823.191 117.196L828.048 109.163L852.708 41.9082H882.599L824.872 175.483H796.849ZM817.026 135.317L780.409 41.9082H810.674L840.751 127.097L817.026 135.317Z" fill="#D7DBDA"/>
<path d="M738.841 139.053C729.749 139.053 722.338 136.936 716.609 132.701C711.005 128.467 707.704 122.675 706.708 115.327L708.203 115.14V137.185H680.74V2.67578H708.763V63.018L707.082 62.6444C708.452 55.6699 712.063 50.1899 717.917 46.2044C723.895 42.0944 731.368 40.0394 740.335 40.0394C748.929 40.0394 756.339 42.0944 762.567 46.2044C768.918 50.1899 773.776 55.8567 777.138 63.2049C780.626 70.553 782.369 79.2089 782.369 89.1726C782.369 99.2608 780.563 108.041 776.952 115.514C773.34 122.987 768.296 128.778 761.819 132.888C755.343 136.998 747.683 139.053 738.841 139.053ZM730.994 116.635C737.595 116.635 742.951 114.268 747.061 109.536C751.171 104.803 753.226 98.0776 753.226 89.3594C753.226 80.6412 751.108 73.978 746.874 69.3699C742.764 64.7617 737.346 62.4576 730.621 62.4576C724.144 62.4576 718.789 64.824 714.554 69.5567C710.444 74.1649 708.389 80.828 708.389 89.5462C708.389 98.2644 710.444 104.99 714.554 109.723C718.789 114.331 724.269 116.635 730.994 116.635Z" fill="#D7DBDA"/>
<path d="M536.504 137.185V2.67578H564.527V137.185H536.504ZM602.824 137.185V78.1503C602.824 72.9194 601.454 68.9962 598.714 66.3808C596.099 63.7653 592.238 62.4576 587.132 62.4576C582.773 62.4576 578.849 63.454 575.362 65.4467C571.999 67.4394 569.322 70.1794 567.329 73.6667C565.461 77.154 564.527 81.2639 564.527 85.9967L562.098 63.018C565.212 56.0435 569.758 50.5012 575.736 46.3912C581.838 42.1567 589.311 40.0394 598.154 40.0394C608.74 40.0394 616.836 43.0285 622.44 49.0067C628.045 54.8603 630.847 62.769 630.847 72.7326V137.185H602.824Z" fill="#D7DBDA"/>
<path d="M478.259 139.053C468.295 139.053 459.514 136.935 451.917 132.701C444.32 128.466 438.342 122.613 433.983 115.14C429.748 107.667 427.631 99.1359 427.631 89.5459C427.631 79.9559 429.748 71.4245 433.983 63.9518C438.342 56.4791 444.32 50.6254 451.917 46.3909C459.514 42.1563 468.295 40.0391 478.259 40.0391C486.603 40.0391 494.076 41.5959 500.677 44.7095C507.402 47.6986 512.882 51.8709 517.117 57.2263C521.476 62.5818 524.278 68.8713 525.524 76.095H498.435C497.065 71.4868 494.574 67.9995 490.962 65.6332C487.475 63.2668 483.365 62.0836 478.632 62.0836C474.149 62.0836 470.225 63.2045 466.863 65.4463C463.624 67.6881 461.134 70.8641 459.39 74.9741C457.646 79.0841 456.774 83.9413 456.774 89.5459C456.774 95.1504 457.646 100.008 459.39 104.118C461.134 108.228 463.624 111.404 466.863 113.645C470.225 115.887 474.149 117.008 478.632 117.008C483.365 117.008 487.475 115.825 490.962 113.459C494.574 111.092 497.065 107.605 498.435 102.997H525.524C524.278 110.22 521.476 116.51 517.117 121.865C512.882 127.221 507.402 131.455 500.677 134.569C494.076 137.558 486.603 139.053 478.259 139.053Z" fill="#D7DBDA"/>
<path d="M322.94 137.185V41.9072H350.403V64.3254H350.963V137.185H322.94ZM389.261 137.185V78.15C389.261 72.9191 387.891 68.9959 385.151 66.3804C382.535 63.765 378.674 62.4572 373.568 62.4572C369.209 62.4572 365.286 63.4536 361.799 65.4463C358.436 67.4391 355.758 70.1791 353.765 73.6663C351.897 77.1536 350.963 81.2636 350.963 85.9963L348.534 63.0177C351.648 56.0431 356.194 50.5009 362.172 46.3909C368.275 42.1563 375.748 40.0391 384.59 40.0391C395.177 40.0391 403.272 43.0282 408.877 49.0063C414.481 54.86 417.284 62.7686 417.284 72.7322V137.185H389.261Z" fill="#D7DBDA"/>
<path d="M243.06 139.054C236.335 139.054 230.543 137.621 225.686 134.757C220.953 131.768 217.342 127.845 214.851 122.987C212.36 118.005 211.114 112.463 211.114 106.36V41.9082H239.137V100.943C239.137 106.174 240.445 110.097 243.06 112.712C245.676 115.328 249.35 116.635 254.082 116.635C258.317 116.635 262.053 115.639 265.292 113.646C268.53 111.654 271.083 108.914 272.951 105.426C274.944 101.815 275.94 97.7046 275.94 93.0964L278.369 116.075C275.255 122.925 270.709 128.467 264.731 132.702C258.753 136.936 251.529 139.054 243.06 139.054ZM276.501 137.185V114.767H275.94V41.9082H303.963V137.185H276.501Z" fill="#D7DBDA"/>
<path d="M142.215 137.185V41.9072H169.677V64.3254H170.238V137.185H142.215ZM170.238 87.4909L167.809 64.8859C170.051 56.7904 173.725 50.6254 178.831 46.3909C183.938 42.1563 190.289 40.0391 197.887 40.0391C200.253 40.0391 201.997 40.2882 203.118 40.7863V66.9409C202.495 66.6918 201.623 66.5672 200.502 66.5672C199.381 66.4427 198.011 66.3804 196.392 66.3804C187.425 66.3804 180.824 67.9995 176.589 71.2377C172.355 74.3513 170.238 79.7691 170.238 87.4909Z" fill="#D7DBDA"/>
<path d="M67.4414 139.053C57.7268 139.053 48.7595 137.372 40.5395 134.009C32.3195 130.522 25.1582 125.664 19.0555 119.437C13.0773 113.21 8.40682 105.862 5.04409 97.3926C1.68136 88.799 0 79.4581 0 69.3699C0 59.2817 1.61909 50.0653 4.85727 41.7208C8.22 33.3762 12.8905 26.1526 18.8686 20.0499C24.9714 13.8226 32.1327 9.08988 40.3527 5.85171C48.5727 2.48898 57.6023 0.807617 67.4414 0.807617C78.5259 0.807617 88.4895 2.98716 97.3323 7.34625C106.3 11.5808 113.585 17.6212 119.19 25.4676C124.919 33.1894 128.406 42.2812 129.652 52.7431H101.629C100.01 43.1531 96.0868 35.9294 89.8595 31.0722C83.6323 26.0903 76.2218 23.5994 67.6282 23.5994C60.0309 23.5994 53.3055 25.4053 47.4518 29.0172C41.7227 32.629 37.2391 37.8599 34.0009 44.7099C30.7627 51.4353 29.1436 59.5931 29.1436 69.1831C29.1436 78.8976 30.7627 87.3044 34.0009 94.4035C37.3636 101.378 41.9718 106.796 47.8255 110.657C53.6791 114.393 60.4045 116.261 68.0018 116.261C76.0973 116.261 83.2586 113.833 89.4859 108.975C95.7132 104.118 99.7609 96.8944 101.629 87.3044H130.025C128.406 97.7662 124.732 106.92 119.003 114.767C113.274 122.489 105.988 128.467 97.1454 132.701C88.3027 136.936 78.4014 139.053 67.4414 139.053Z" fill="#D7DBDA"/>
</g>
</svg>
