<svg width="32" height="32" viewBox="0 0 32 32" fill="none" xmlns="http://www.w3.org/2000/svg">
<path fill-rule="evenodd" clip-rule="evenodd" d="M9.35722 1.15382C11.1963 0.392067 13.1673 0 15.1579 0V11.3684C15.1579 13.4613 13.4613 15.1579 11.3684 15.1579H0C0 13.1673 0.392067 11.1963 1.15382 9.35722C1.91558 7.51818 3.0321 5.84718 4.43964 4.43965C5.84718 3.0321 7.51818 1.91558 9.35722 1.15382Z" fill="white"/>
<path fill-rule="evenodd" clip-rule="evenodd" d="M26.1995 1.15382C28.0385 0.392067 30.0096 0 32.0002 0V11.3684C32.0002 13.4613 30.3036 15.1579 28.2107 15.1579H16.8423C16.8423 13.1673 17.2344 11.1963 17.9961 9.35722C18.7579 7.51818 19.8744 5.84718 21.2819 4.43965C22.6895 3.0321 24.3605 1.91558 26.1995 1.15382Z" fill="white"/>
<path fill-rule="evenodd" clip-rule="evenodd" d="M22.6428 30.8462C20.8037 31.6079 18.8327 32 16.8421 32V20.6316C16.8421 18.5387 18.5387 16.8421 20.6316 16.8421H32C32 18.8327 31.6079 20.8037 30.8462 22.6428C30.0844 24.4818 28.9679 26.1528 27.5604 27.5604C26.1528 28.9679 24.4818 30.0844 22.6428 30.8462Z" fill="white"/>
<path fill-rule="evenodd" clip-rule="evenodd" d="M5.80049 30.8462C3.96145 31.6079 1.99038 32 -0.000180244 32V20.6316C-0.000180244 18.5387 1.69643 16.8421 3.78929 16.8421H15.1577C15.1577 18.8327 14.7656 20.8037 14.0039 22.6428C13.2421 24.4818 12.1256 26.1528 10.7181 27.5604C9.31053 28.9679 7.63954 30.0844 5.80049 30.8462Z" fill="white"/>
</svg>
