<svg width="124" height="30" viewBox="0 0 124 30" fill="none" xmlns="http://www.w3.org/2000/svg">
<g clip-path="url(#clip0_1266_4155)">
<path d="M45.2618 22.3497C43.076 22.8415 38.6498 23.5519 39.1416 20.3278C39.5241 17.9235 43.3493 17.9235 45.8083 18.2513L45.2618 22.3497ZM37.229 13.4426C40.3984 12.7322 46.1908 10.8196 46.1361 15.6284C43.3493 15.683 41.2727 15.3005 38.6498 16.2295C31.9285 18.6885 33.9503 28.142 45.8083 25.3005C49.4695 24.4262 48.8137 24.2076 49.3602 20.6011C50.0159 16.3934 51.4913 11.0929 45.6443 9.6721C44.005 9.28959 39.852 9.50817 38.2673 10.0546L37.229 13.4426ZM92.0378 16.0655L84.8793 16.1202C85.3711 11.694 92.7482 10.3278 92.0378 16.0655ZM93.5132 21.8579C91.4367 22.2404 89.7973 23.0601 87.4476 22.6776C85.3711 22.295 84.1689 21.2022 84.3329 18.7978H95.4804C95.8083 15.4644 96.4094 10.4918 90.8356 9.61746C80.7263 8.0874 76.9012 20.9289 83.3492 24.7541C85.9176 26.2841 91.9285 25.847 92.5842 24.8087C92.8028 24.5355 93.4039 22.3497 93.5132 21.8579ZM109.743 21.694L108.868 24.6994C112.639 26.8852 123.622 25.847 121.273 19.3442C120.836 18.142 119.907 17.4317 118.814 16.7759C118.103 16.3388 116.081 15.4098 115.644 14.918C114.333 13.3333 116.573 11.2022 121.874 13.3333C122.202 12.8961 122.256 12.5136 122.475 11.9125C122.694 11.3114 122.803 10.9836 122.967 10.3825C120.125 9.72674 117.393 8.96172 114.333 10.1093C112.038 10.9836 108.103 15.0819 114.551 18.5792C115.535 19.1257 117.229 19.7267 117.174 20.9836C117.12 22.4043 115.316 22.6776 113.841 22.6229C111.928 22.6229 111.327 22.1311 109.743 21.694ZM109.306 10.3278C106.464 9.78139 103.513 8.85243 100.508 10.1639C99.2509 10.7104 98.4312 11.3114 97.8848 12.5683C95.4804 18.1967 103.95 18.5246 103.568 21.0929C103.349 22.4043 101.601 22.6776 100.125 22.6229C98.4312 22.5683 97.6662 22.1858 96.2454 21.694C95.8083 22.2404 95.3711 23.8251 95.3165 24.6994C97.2837 25.847 101.928 26.0109 104.224 25.2459C106.464 24.4808 109.032 22.1311 107.557 19.0164C106.464 16.7759 102.475 15.9016 101.874 14.6448C101.054 13.0054 103.021 12.459 104.278 12.4043C106.027 12.3497 106.956 12.8415 108.377 13.3333L109.306 10.3278ZM66.3001 10.3825C63.1853 9.56281 60.1252 9.01636 56.9558 10.3278C51.382 12.5683 49.7427 20.765 54.2782 24.2623C56.5187 25.9563 60.0159 25.9563 63.2946 25.4098L64.4421 21.9672C62.2564 22.459 60.2345 23.0601 58.158 21.8032C54.8793 19.7814 55.6443 14.4808 59.4695 13.0601C61.9831 12.1311 63.1853 12.8961 65.3165 13.3879L66.3001 10.3825ZM78.7591 22.0218C76.464 22.459 74.7154 23.0601 72.5842 21.9125C69.4695 20.2185 69.7427 14.7541 73.7864 13.1147C76.3001 12.0765 77.5023 13.0601 79.6334 13.3879L80.6717 10.4371C77.393 9.56281 73.6771 8.96172 70.617 10.6557C64.0596 14.2623 63.1853 27.1038 76.2454 25.6284C77.6662 25.4644 77.6115 25.6284 77.9941 24.4262C78.2673 23.6065 78.5952 22.8415 78.7591 22.0218Z" fill="#004185"/>
<path d="M12.9675 2.40449L26.5194 15.9018L14.8254 27.5957L3.13142 15.9018L8.75984 10.1094H6.46475L0.727051 15.9018L14.8254 30.0001L28.8691 15.9018L13.0221 0.00012207L12.9675 2.40449Z" fill="#F57E20"/>
<path d="M13.0215 10.164L10.5625 10.1094L4.93408 15.9017L14.8248 25.7924L24.7155 15.9017L13.0215 4.15308L12.9669 6.44816L22.4204 15.9017L14.8248 23.4973L7.28381 15.9017L13.0215 10.164Z" fill="#F57E20"/>
<path d="M14.7704 12.5136L18.213 15.9016L14.7704 19.2896L11.3278 15.9016L14.7704 12.5136ZM20.5627 15.9016L14.7704 10.1093L8.97803 15.9016L14.7704 21.694L20.5627 15.9016Z" fill="#F57E20"/>
</g>
<defs>
<clipPath id="clip0_1266_4155">
<rect width="122.295" height="30" fill="white" transform="translate(0.725098)"/>
</clipPath>
</defs>
</svg>
