<svg width="23" height="22" viewBox="0 0 23 22" fill="none" xmlns="http://www.w3.org/2000/svg">
<path d="M18.0315 5.5V14.4375C18.0315 14.711 17.9228 14.9733 17.7294 15.1667C17.536 15.3601 17.2737 15.4688 17.0002 15.4688C16.7267 15.4688 16.4644 15.3601 16.271 15.1667C16.0776 14.9733 15.969 14.711 15.969 14.4375V7.99219L6.72982 17.2296C6.53608 17.4233 6.27333 17.5322 5.99935 17.5322C5.72537 17.5322 5.46261 17.4233 5.26888 17.2296C5.07515 17.0359 4.96631 16.7731 4.96631 16.4991C4.96631 16.2252 5.07515 15.9624 5.26888 15.7687L14.508 6.53125H8.06271C7.7892 6.53125 7.5269 6.4226 7.3335 6.2292C7.14011 6.03581 7.03146 5.7735 7.03146 5.5C7.03146 5.2265 7.14011 4.96419 7.3335 4.7708C7.5269 4.5774 7.7892 4.46875 8.06271 4.46875H17.0002C17.2737 4.46875 17.536 4.5774 17.7294 4.7708C17.9228 4.96419 18.0315 5.2265 18.0315 5.5Z" fill="#F3F8F8"/>
</svg>
