<svg width="20" height="20" viewBox="0 0 20 20" fill="none" xmlns="http://www.w3.org/2000/svg">
<path d="M15.9374 6.87501V15C15.9374 15.2487 15.8386 15.4871 15.6628 15.6629C15.487 15.8387 15.2485 15.9375 14.9999 15.9375H6.87487C6.62623 15.9375 6.38777 15.8387 6.21196 15.6629C6.03614 15.4871 5.93737 15.2487 5.93737 15C5.93737 14.7514 6.03614 14.5129 6.21196 14.3371C6.38777 14.1613 6.62623 14.0625 6.87487 14.0625H12.7342L4.33659 5.66251C4.24938 5.57531 4.18021 5.47178 4.13301 5.35784C4.08581 5.2439 4.06152 5.12178 4.06152 4.99845C4.06152 4.74938 4.16047 4.51051 4.33659 4.33439C4.51271 4.15827 4.75158 4.05933 5.00065 4.05933C5.24972 4.05933 5.48859 4.15827 5.66471 4.33439L14.0624 12.7344V6.87501C14.0624 6.62637 14.1611 6.38792 14.337 6.2121C14.5128 6.03629 14.7512 5.93751 14.9999 5.93751C15.2485 5.93751 15.487 6.03629 15.6628 6.2121C15.8386 6.38792 15.9374 6.62637 15.9374 6.87501Z" fill="#0C6291"/>
</svg>
