<svg width="102" height="8" viewBox="0 0 102 8" fill="none" xmlns="http://www.w3.org/2000/svg">
<path opacity="0.6" fill-rule="evenodd" clip-rule="evenodd" d="M87.8357 2.54414C91.8725 3.29334 95.9903 4.05757 102 4.05757V3.94243C96.0002 3.94243 91.8987 3.18108 87.8669 2.43264C85.9574 2.07819 84.0635 1.72662 81.991 1.4602C75.5454 0.631643 67.3964 0.632508 51.7279 3.94362C36.0695 7.25258 23.1445 7.25246 14.1347 6.42534C9.62982 6.01177 6.10378 5.39146 3.70433 4.87466C2.50462 4.61627 1.58655 4.38375 0.96862 4.2159C0.65966 4.13197 0.42572 4.06421 0.269135 4.01746C0.190842 3.99409 0.131889 3.97597 0.0925446 3.96371C0.0728836 3.95758 0.0581207 3.95292 0.0483017 3.94979L0.0372849 3.94627L0.0345612 3.9454C0.0345612 3.9454 0.0337067 3.94512 0.016716 4C-0.000274658 4.05487 0 4.05496 0 4.05496L0.0036087 4.05613L0.0149384 4.05975C0.0249634 4.06294 0.0399323 4.06767 0.0598145 4.07386C0.0995636 4.08625 0.158943 4.1045 0.237671 4.128C0.395111 4.175 0.629929 4.24301 0.939796 4.32718C1.55952 4.49553 2.47948 4.72851 3.68119 4.98734C6.08459 5.50499 9.61503 6.12602 14.1247 6.54001C23.144 7.36801 36.0802 7.36789 51.7506 4.05638C67.4108 0.747023 75.5469 0.747886 81.977 1.57444C84.0391 1.83953 85.9284 2.19016 87.8357 2.54414Z" fill="#0F577D" stroke="#0F577D" stroke-width="2"/>
</svg>
