<svg width="728" height="55" viewBox="0 0 728 55" fill="none" xmlns="http://www.w3.org/2000/svg">
<g clip-path="url(#clip0_1515_1612)">
<path fill-rule="evenodd" clip-rule="evenodd" d="M826.252 14.2395C876.91 21.1485 928.584 28.1959 1004 28.1959V27.1341C928.708 27.1341 877.239 20.1132 826.643 13.2114C802.681 9.94267 778.915 6.70068 752.906 4.24383C672.021 -3.39687 569.758 -3.38889 373.134 27.1451C176.637 57.6592 14.4406 57.6581 -98.6232 50.0307C-155.155 46.217 -199.404 40.4966 -229.514 35.7309C-244.57 33.348 -256.09 31.2038 -263.845 29.6559C-267.722 28.882 -270.658 28.2571 -272.623 27.8261C-273.605 27.6105 -274.345 27.4434 -274.839 27.3304C-275.085 27.2739 -275.271 27.2309 -275.394 27.202L-275.532 27.1696L-275.566 27.1615L-275.574 27.1595C-275.574 27.1595 -275.577 27.1589 -275.79 27.665C-276.003 28.1711 -276 28.1719 -276 28.1719L-275.991 28.1741L-275.955 28.1826L-275.812 28.216C-275.687 28.2454 -275.499 28.289 -275.249 28.3462C-274.751 28.4604 -274.005 28.6287 -273.017 28.8454C-271.042 29.2788 -268.095 29.906 -264.207 30.6822C-256.429 32.2346 -244.885 34.3831 -229.805 36.7699C-199.644 41.5435 -155.341 47.2705 -98.7491 51.0882C14.4341 58.7237 176.771 58.7226 373.419 28.185C569.94 -2.33287 672.04 -2.32491 752.73 5.29733C778.609 7.74188 802.317 10.9752 826.252 14.2395Z" fill="#44B9EC"/>
</g>
<defs>
<clipPath id="clip0_1515_1612">
<rect width="728" height="55" fill="white"/>
</clipPath>
</defs>
</svg>
