<svg width="992" height="55" viewBox="0 0 992 55" fill="none" xmlns="http://www.w3.org/2000/svg">
<g clip-path="url(#clip0_1515_1606)">
<path fill-rule="evenodd" clip-rule="evenodd" d="M958.252 14.2395C1008.91 21.1485 1060.58 28.1959 1136 28.1959V27.1341C1060.71 27.1341 1009.24 20.1132 958.643 13.2114C934.681 9.94267 910.915 6.70068 884.906 4.24383C804.021 -3.39687 701.758 -3.38889 505.134 27.1451C308.637 57.6592 146.441 57.6581 33.3768 50.0307C-23.1552 46.217 -67.4036 40.4966 -97.5143 35.7309C-112.57 33.348 -124.09 31.2038 -131.845 29.6559C-135.722 28.882 -138.658 28.2571 -140.623 27.8261C-141.605 27.6105 -142.345 27.4434 -142.839 27.3304C-143.085 27.2739 -143.271 27.2309 -143.394 27.202L-143.532 27.1696L-143.566 27.1615L-143.574 27.1595C-143.574 27.1595 -143.577 27.1589 -143.79 27.665C-144.003 28.1711 -144 28.1719 -144 28.1719L-143.991 28.1741L-143.955 28.1826L-143.812 28.216C-143.687 28.2454 -143.499 28.289 -143.249 28.3462C-142.751 28.4604 -142.005 28.6287 -141.017 28.8454C-139.042 29.2788 -136.095 29.906 -132.207 30.6822C-124.429 32.2346 -112.885 34.3831 -97.8047 36.7699C-67.6443 41.5435 -23.3408 47.2705 33.2509 51.0882C146.434 58.7237 308.771 58.7226 505.419 28.185C701.94 -2.33287 804.04 -2.32491 884.73 5.29733C910.609 7.74188 934.317 10.9752 958.252 14.2395Z" fill="#44B9EC"/>
</g>
<defs>
<clipPath id="clip0_1515_1606">
<rect width="992" height="55" fill="white"/>
</clipPath>
</defs>
</svg>
