<svg width="190" height="30" viewBox="0 0 190 30" fill="none" xmlns="http://www.w3.org/2000/svg">
<g clip-path="url(#clip0_1266_4139)">
<path d="M61.4269 7.05518H58.0938V24.2048H61.4269V7.05518Z" fill="#2A3362"/>
<path d="M74.3263 18.1203C74.3263 20.4872 72.8035 21.5506 70.7759 21.5506C68.7483 21.5506 67.3932 20.4872 67.3932 18.2403V12.1285H64.0601V19.0141C64.0601 22.4423 66.2097 24.4472 69.7849 24.4472C72.0318 24.4472 73.2876 23.6196 74.1297 22.6844H74.3242L74.6139 24.2072H77.6801V12.1285H74.3263V18.1203Z" fill="#2A3362"/>
<path d="M107.022 21.8151C104.583 21.8151 103.207 20.704 102.99 19.0861H113.569C113.617 18.7497 113.642 18.4102 113.641 18.0702C113.618 13.7254 110.331 11.8861 106.813 11.8861C102.731 11.8861 99.6631 14.3275 99.6631 18.2647C99.6631 22.0075 102.611 24.4468 107.031 24.4468C110.728 24.4468 113.19 22.8061 113.699 20.2923H110.405C109.993 21.2833 108.81 21.8151 107.022 21.8151ZM106.816 14.5199C108.942 14.5199 110.173 15.4613 110.368 16.7958H103.062C103.375 15.5171 104.608 14.5199 106.805 14.5199H106.816Z" fill="#2A3362"/>
<path d="M119.305 13.8619H119.098L118.783 12.1219H115.754V24.2068H119.088V19.0137C119.088 16.6695 120.439 15.3661 122.952 15.3661C123.409 15.3597 123.865 15.4 124.314 15.4861V12.1282H123.848C121.626 12.1282 120.246 12.5875 119.305 13.8619Z" fill="#2A3362"/>
<path d="M140.678 20.4375H140.486L137.635 12.8775H134.204L131.403 20.4147H131.186L128.529 12.1285H125.219L129.301 24.2072H132.926L135.824 16.5003H136.017L138.868 24.2072H142.515L146.597 12.1285H143.287L140.678 20.4375Z" fill="#2A3362"/>
<path d="M159.864 20.6897V16.6469C159.864 13.3614 157.086 11.8883 153.631 11.8883C149.96 11.8883 147.666 13.6283 147.351 16.2331H150.684C150.926 15.0973 151.893 14.4704 153.631 14.4704C155.368 14.4704 156.527 15.1221 156.527 16.4504V16.7586L151.092 17.1724C148.58 17.3669 146.747 18.478 146.747 20.8449C146.747 23.2842 148.849 24.4428 151.94 24.4428C154.435 24.4428 155.956 23.7476 156.887 22.6987H157.053C157.576 23.878 158.637 24.2028 159.792 24.2028H161.193V21.7428H160.878C160.177 21.7428 159.864 21.4055 159.864 20.6897ZM156.529 19.409C156.529 21.3186 154.253 21.9455 152.302 21.9455C150.974 21.9455 150.105 21.6083 150.105 20.6897C150.105 19.8621 150.854 19.4586 151.967 19.3614L156.531 19.0242L156.529 19.409Z" fill="#2A3362"/>
<path d="M172.188 12.1285L168.298 20.8741H168.081L164.143 12.1285H160.543L166.171 24.2072H170.158L175.761 12.1285H172.188Z" fill="#2A3362"/>
<path d="M186.415 20.2923C186.001 21.2833 184.82 21.8151 183.033 21.8151C180.593 21.8151 179.217 20.704 179 19.0861H189.579C189.628 18.7497 189.652 18.4102 189.651 18.0702C189.628 13.7254 186.341 11.8861 182.824 11.8861C178.741 11.8861 175.675 14.3275 175.675 18.2647C175.675 22.0075 178.621 24.4468 183.041 24.4468C186.738 24.4468 189.2 22.8061 189.709 20.2923H186.415ZM182.815 14.5199C184.942 14.5199 186.173 15.4613 186.368 16.7958H179.064C179.381 15.5171 180.61 14.5199 182.807 14.5199H182.815Z" fill="#2A3362"/>
<path d="M52.677 11.2384C52.677 10.1749 53.426 9.7177 54.3922 9.7177C54.8416 9.72186 55.2884 9.78658 55.7205 9.91012L56.277 7.49356C55.4702 7.20827 54.621 7.06138 53.7653 7.05908C51.3012 7.05908 49.3212 8.3646 49.3212 11.0687V12.128H46.4453V14.7743H49.3212V24.2067H52.677V14.7722H56.4343V12.128H52.677V11.2384Z" fill="#2A3362"/>
<path d="M85.0355 8.72278H81.932L81.7582 12.1283H79.1348V14.7745H81.6961V20.729C81.6961 22.7566 82.7306 24.4531 85.8341 24.4531C86.6386 24.4531 87.4407 24.3643 88.2258 24.1883V21.6455C87.7731 21.747 87.3116 21.8038 86.8479 21.8152C85.1824 21.8152 85.0375 20.8738 85.0375 20.1476V14.7683H88.3479V12.1283H85.0355V8.72278Z" fill="#2A3362"/>
<path d="M95.5035 8.72278H92.4104L92.2366 12.1283H89.6069V14.7745H92.1683V20.729C92.1683 22.7566 93.2028 24.4531 96.3062 24.4531C97.1089 24.4506 97.909 24.3597 98.6918 24.1821V21.6455C98.2391 21.747 97.7776 21.8038 97.3138 21.8152C95.6483 21.8152 95.5035 20.8738 95.5035 20.1476V14.7683H98.8242V12.1283H95.5035V8.72278Z" fill="#2A3362"/>
<path d="M0.0493164 6.59778C0.0493164 4.65916 0.616213 3.00399 1.80587 1.81433L3.87483 3.8833C1.57208 6.17778 3.58311 13.3116 10.1397 19.8743C16.6962 26.4371 23.8341 28.4461 26.1348 26.1474L28.2038 28.2164C24.3224 32.0978 15.4817 29.344 8.08104 21.9412C2.94794 16.8061 0.0493164 10.9798 0.0493164 6.59778Z" fill="#009A46"/>
<path d="M13.0966 29.9999C11.1579 29.9999 9.50276 29.433 8.31104 28.2434L10.38 26.1744C12.6786 28.473 19.8124 26.462 26.3752 19.9013C32.9379 13.3406 34.9448 6.20682 32.6462 3.9082L34.7152 1.83923C38.5986 5.72061 35.8428 14.5613 28.44 21.962C23.3048 27.1034 17.4786 29.9999 13.0966 29.9999Z" fill="#FF5805"/>
<path d="M29.1246 19.0014C27.8687 15.3849 25.3032 11.52 21.8998 8.11866C14.4991 0.715903 5.6584 -2.03996 1.77702 1.84349C1.50185 2.12073 1.73978 2.80556 2.31081 3.37659C2.88185 3.94763 3.56667 4.18349 3.84184 3.90832C6.14253 1.6097 13.2763 3.62073 19.837 10.1835C22.9405 13.2869 25.2536 16.7525 26.3687 19.9594C27.3453 22.7711 27.2501 25.0387 26.1122 26.1766C25.8349 26.4518 26.0749 27.1387 26.6439 27.7076C27.2129 28.2766 27.8998 28.5166 28.177 28.2394C30.1653 26.2511 30.5025 22.9656 29.1246 19.0014Z" fill="#F5AFCB"/>
<path d="M34.7109 1.84345C32.7185 -0.148963 29.4371 -0.486205 25.4688 0.893795C21.8544 2.14759 17.9875 4.71517 14.5861 8.11655C7.1854 15.5172 4.42954 24.3579 8.31092 28.2414C8.58816 28.5166 9.27299 28.2786 9.84402 27.7097C10.4151 27.1407 10.653 26.4538 10.3757 26.1766C8.07092 23.8779 10.0882 16.7441 16.6509 10.1814C19.7544 7.07793 23.2199 4.76483 26.4268 3.64966C29.2385 2.67517 31.5061 2.76828 32.6461 3.90621C32.9213 4.18138 33.6082 3.94345 34.1771 3.37242C34.7461 2.80138 34.9861 2.11862 34.7109 1.84345Z" fill="#FF9B00"/>
</g>
<defs>
<clipPath id="clip0_1266_4139">
<rect width="189.724" height="30" fill="white" transform="translate(0.000976562)"/>
</clipPath>
</defs>
</svg>
