<svg width="1440" height="196" viewBox="0 0 1440 196" fill="none" xmlns="http://www.w3.org/2000/svg">
<g clip-path="url(#clip0_2_740)">
<path d="M997.533 356.02C997.533 542.098 888.799 733.7 611.4 692.945C244.121 638.984 72.925 542.098 72.925 356.02C72.925 169.941 300.562 129.382 611.4 19.0949C861.783 -69.7427 997.533 169.941 997.533 356.02Z" fill="#C09D4F"/>
<path d="M1555.62 391.087C1555.62 606.238 1382.74 780.652 1169.48 780.652C956.228 780.652 570.675 670.151 570.675 455C570.675 239.849 956.228 1.52148 1169.48 1.52148C1382.74 1.52148 1555.62 175.936 1555.62 391.087Z" fill="#989A85"/>
<path d="M1016.49 373.108C1056.82 697.068 530.635 822.021 317.379 822.021C104.123 822.021 -68.7544 647.607 -68.7544 432.456C-68.7544 217.305 -85.3461 -130.588 300.787 50.4992C706.529 249.847 978.347 66.666 1016.49 373.108Z" fill="#0C6291"/>
</g>
<defs>
<clipPath id="clip0_2_740">
<rect width="1448" height="280" fill="white" transform="translate(-4)"/>
</clipPath>
</defs>
</svg>
