<svg width="17" height="16" viewBox="0 0 17 16" fill="none" xmlns="http://www.w3.org/2000/svg">
<path d="M11.8973 8.5306L6.8973 13.5306C6.7564 13.6715 6.5653 13.7506 6.36605 13.7506C6.16679 13.7506 5.97569 13.6715 5.8348 13.5306C5.6939 13.3897 5.61475 13.1986 5.61475 12.9993C5.61475 12.8001 5.6939 12.609 5.8348 12.4681L10.3042 7.99997L5.83605 3.5306C5.76628 3.46083 5.71094 3.37801 5.67319 3.28686C5.63543 3.19571 5.616 3.09801 5.616 2.99935C5.616 2.90069 5.63543 2.80299 5.67319 2.71184C5.71094 2.62069 5.76628 2.53786 5.83605 2.4681C5.90581 2.39833 5.98863 2.34299 6.07979 2.30524C6.17094 2.26748 6.26863 2.24805 6.3673 2.24805C6.46596 2.24805 6.56366 2.26748 6.65481 2.30524C6.74596 2.34299 6.82878 2.39833 6.89855 2.4681L11.8985 7.4681C11.9684 7.53786 12.0238 7.62072 12.0615 7.71193C12.0993 7.80313 12.1186 7.9009 12.1185 7.99961C12.1184 8.09832 12.0988 8.19603 12.0608 8.28715C12.0229 8.37827 11.9673 8.461 11.8973 8.5306Z" fill="#6A7372"/>
</svg>
