<svg width="536" height="24" viewBox="0 0 536 24" fill="none" xmlns="http://www.w3.org/2000/svg">
<g opacity="0.4">
<path fill-rule="evenodd" clip-rule="evenodd" d="M-242.465 17.7864C-278.243 14.7716 -314.738 11.6963 -368 11.6963V12.1597C-314.825 12.1597 -278.475 15.2233 -242.742 18.235C-225.819 19.6614 -209.034 21.0761 -190.665 22.1481C-133.54 25.4823 -61.3169 25.4788 77.5492 12.1549C216.325 -1.1604 330.876 -1.15991 410.728 2.16843C450.653 3.8326 481.904 6.32874 503.169 8.40834C513.802 9.44813 521.939 10.3838 527.415 11.0592C530.154 11.3969 532.227 11.6696 533.615 11.8577C534.309 11.9518 534.831 12.0247 535.18 12.074C535.354 12.0987 535.485 12.1174 535.572 12.13L535.669 12.1442L535.694 12.1477L535.699 12.1486C535.699 12.1486 535.701 12.1488 535.852 11.928C536.002 11.7072 536 11.7068 536 11.7068L535.993 11.7059L535.968 11.7021L535.868 11.6876C535.779 11.6747 535.646 11.6557 535.47 11.6308C535.118 11.5809 534.591 11.5075 533.894 11.4129C532.498 11.2238 530.417 10.9501 527.671 10.6114C522.178 9.93398 514.025 8.99646 503.375 7.95494C482.074 5.87191 450.784 3.37289 410.817 1.70696C330.881 -1.6249 216.231 -1.62443 77.3478 11.7011C-61.4448 25.018 -133.553 25.0145 -190.541 21.6884C-208.818 20.6217 -225.561 19.2108 -242.465 17.7864Z" fill="#DFE2E2"/>
</g>
</svg>
