<svg width="380" height="25" viewBox="0 0 380 25" fill="none" xmlns="http://www.w3.org/2000/svg">
<g opacity="0.4">
<path fill-rule="evenodd" clip-rule="evenodd" d="M620.017 18.2864C648.512 15.2716 677.579 12.1963 720 12.1963V12.6597C677.648 12.6597 648.697 15.7233 620.237 18.735C606.758 20.1614 593.39 21.5761 578.76 22.6481C533.262 25.9823 475.739 25.9788 365.138 12.6549C254.608 -0.660397 163.373 -0.659914 99.7745 2.66843C67.9752 4.3326 43.0855 6.82874 26.1482 8.90834C17.6796 9.94813 11.1992 10.8838 6.83734 11.5592C4.65637 11.8969 3.00507 12.1696 1.89978 12.3577C1.34711 12.4518 0.930969 12.5247 0.653259 12.574C0.514526 12.5987 0.410278 12.6174 0.340942 12.63L0.263184 12.6442L0.243958 12.6477L0.239319 12.6486C0.239319 12.6486 0.237915 12.6488 0.117981 12.428C-0.00195312 12.2072 0 12.2068 0 12.2068L0.00518799 12.2059L0.0254517 12.2021L0.105469 12.1876C0.176208 12.1747 0.28186 12.1557 0.42218 12.1308C0.702759 12.0809 1.12195 12.0075 1.67767 11.9129C2.78906 11.7238 4.44653 11.4501 6.63385 11.1114C11.0084 10.434 17.5022 9.49646 25.9848 8.45494C42.9501 6.37191 67.8708 3.87289 99.7036 2.20696C163.369 -1.1249 254.684 -1.12443 365.298 12.2011C475.841 25.518 533.273 25.5145 578.661 22.1884C593.217 21.1217 606.553 19.7108 620.017 18.2864Z" fill="#3B3F3F"/>
</g>
</svg>
