<svg width="904" height="56" viewBox="0 0 904 56" fill="none" xmlns="http://www.w3.org/2000/svg">
<path fill-rule="evenodd" clip-rule="evenodd" d="M778.465 14.2395C814.243 21.1485 850.738 28.1959 904 28.1959V27.1341C850.825 27.1341 814.475 20.1132 778.742 13.2114C761.819 9.94267 745.034 6.70068 726.665 4.24383C669.54 -3.39687 597.317 -3.38889 458.451 27.1451C319.675 57.6592 205.124 57.6581 125.272 50.0307C85.3467 46.217 54.0963 40.4966 32.8306 35.7309C22.1978 33.348 14.0612 31.2038 8.58466 29.6559C5.84644 28.882 3.77313 28.2571 2.38531 27.8261C1.69141 27.6105 1.16895 27.4434 0.820312 27.3304C0.646057 27.2739 0.515137 27.2309 0.428101 27.202L0.330505 27.1696L0.306335 27.1615L0.300537 27.1595C0.300537 27.1595 0.298767 27.1589 0.148193 27.665C-0.00238037 28.1711 0 28.1719 0 28.1719L0.0065918 28.1741L0.0319824 28.1826L0.132446 28.216C0.221313 28.2454 0.353943 28.289 0.530151 28.3462C0.882446 28.4604 1.40875 28.6287 2.10645 28.8454C3.50183 29.2788 5.58295 29.906 8.32916 30.6822C13.8217 32.2346 21.975 34.3831 32.6254 36.7699C53.9263 41.5435 85.2156 47.2705 125.183 51.0882C205.119 58.7237 319.769 58.7226 458.652 28.185C597.445 -2.33287 669.553 -2.32491 726.541 5.29733C744.818 7.74188 761.561 10.9752 778.465 14.2395Z" fill="#124868"/>
</svg>
