<svg width="536" height="24" viewBox="0 0 536 24" fill="none" xmlns="http://www.w3.org/2000/svg">
<g opacity="0.4">
<path fill-rule="evenodd" clip-rule="evenodd" d="M778.465 17.7864C814.243 14.7716 850.738 11.6963 904 11.6963V12.1597C850.825 12.1597 814.475 15.2233 778.742 18.235C761.819 19.6614 745.034 21.0761 726.665 22.1481C669.54 25.4823 597.317 25.4788 458.451 12.1549C319.675 -1.1604 205.124 -1.15991 125.272 2.16843C85.3467 3.8326 54.0963 6.32874 32.8306 8.40834C22.1978 9.44813 14.0612 10.3838 8.58466 11.0592C5.84644 11.3969 3.77313 11.6696 2.38531 11.8577C1.69141 11.9518 1.16895 12.0247 0.820312 12.074C0.646057 12.0987 0.515137 12.1174 0.428101 12.13L0.330505 12.1442L0.306335 12.1477L0.300537 12.1486C0.300537 12.1486 0.298767 12.1488 0.148193 11.928C-0.00238037 11.7072 0 11.7068 0 11.7068L0.0065918 11.7059L0.0319824 11.7021L0.132446 11.6876C0.221313 11.6747 0.353943 11.6557 0.530151 11.6308C0.882446 11.5809 1.40875 11.5075 2.10645 11.4129C3.50183 11.2238 5.58295 10.9501 8.32916 10.6114C13.8217 9.93398 21.975 8.99646 32.6254 7.95494C53.9263 5.87191 85.2156 3.37289 125.183 1.70696C205.119 -1.6249 319.769 -1.62443 458.652 11.7011C597.445 25.018 669.553 25.0145 726.541 21.6884C744.818 20.6217 761.561 19.2108 778.465 17.7864Z" fill="#DFE2E2"/>
</g>
</svg>
