<svg width="30" height="30" viewBox="0 0 30 30" fill="none" xmlns="http://www.w3.org/2000/svg">
<g clip-path="url(#clip0_1585_3523)">
<path fill-rule="evenodd" clip-rule="evenodd" d="M8.7724 1.08177C10.4965 0.367624 12.3444 6.10352e-05 14.2105 6.10352e-05V10.658C14.2105 12.62 12.62 14.2106 10.6579 14.2106H0C0 12.3444 0.367563 10.4966 1.08171 8.77246C1.79586 7.04836 2.8426 5.4818 4.16216 4.16223C5.48174 2.84266 7.04829 1.79592 8.7724 1.08177Z" fill="#0C6291"/>
<path fill-rule="evenodd" clip-rule="evenodd" d="M24.5619 1.08177C26.286 0.367624 28.1339 6.10352e-05 30.0001 6.10352e-05V10.658C30.0001 12.62 28.4095 14.2106 26.4474 14.2106H15.7896C15.7896 12.3444 16.1571 10.4966 16.8713 8.77246C17.5854 7.04836 18.6321 5.4818 19.9517 4.16223C21.2713 2.84266 22.8378 1.79592 24.5619 1.08177Z" fill="#0C6291"/>
<path fill-rule="evenodd" clip-rule="evenodd" d="M21.2276 28.9184C19.5035 29.6325 17.6556 30.0001 15.7895 30.0001V19.3422C15.7895 17.3801 17.38 15.7895 19.3421 15.7895H30C30 17.6557 29.6324 19.5036 28.9183 21.2277C28.2041 22.9518 27.1574 24.5183 25.8378 25.8379C24.5183 27.1575 22.9517 28.2042 21.2276 28.9184Z" fill="#0C6291"/>
<path fill-rule="evenodd" clip-rule="evenodd" d="M5.43805 28.9184C3.71395 29.6325 1.86608 30.0001 -7.72476e-05 30.0001V19.3422C-7.72476e-05 17.3801 1.59049 15.7895 3.55255 15.7895H14.2104C14.2104 17.6557 13.8429 19.5036 13.1287 21.2277C12.4146 22.9518 11.3679 24.5183 10.0483 25.8379C8.72871 27.1575 7.16216 28.2042 5.43805 28.9184Z" fill="#0C6291"/>
</g>
<defs>
<clipPath id="clip0_1585_3523">
<rect width="30" height="30" fill="white"/>
</clipPath>
</defs>
</svg>
