<svg width="60" height="30" viewBox="0 0 60 30" fill="none" xmlns="http://www.w3.org/2000/svg">
<g clip-path="url(#clip0_1266_4137)">
<path d="M30.0005 0C13.432 0 0.000488281 6.71629 0.000488281 15C0.000488281 23.2837 13.432 30 30.0005 30C46.569 30 60.0015 23.2837 60.0015 15C60.0015 6.71629 46.5679 0 30.0005 0ZM30.0005 27.6325C14.7401 27.6325 2.36908 21.9766 2.36908 15C2.36908 8.02335 14.7401 2.36859 30.0005 2.36859C45.2608 2.36859 57.633 8.02335 57.633 15C57.633 21.9766 45.2619 27.6325 30.0005 27.6325ZM26.2179 12.3689V10.0004H34.6847V12.3689H31.6367V20.0028H29.2649V12.3689H26.2179ZM44.8978 10.0004V20.0028H42.5292L38.2334 14.0496V20.0028H35.8659V10.0004H38.2334L42.5292 15.9536V10.0004H44.8978ZM15.0344 20.0028V10.0004H17.4029L20.034 14.0475L22.6651 10.0004H25.0337V20.0028H22.6651V14.3438L20.8659 17.1051H19.199L17.3998 14.3438V20.0028H15.0344Z" fill="#1D1D1B"/>
</g>
<defs>
<clipPath id="clip0_1266_4137">
<rect width="60.0011" height="30" fill="white"/>
</clipPath>
</defs>
</svg>
