<svg width="208" height="48" viewBox="0 0 208 48" fill="none" xmlns="http://www.w3.org/2000/svg">
<path fill-rule="evenodd" clip-rule="evenodd" d="M24 48C37.2548 48 48 37.2548 48 24C48 10.7452 37.2548 0 24 0C10.7452 0 0 10.7452 0 24C0 37.2548 10.7452 48 24 48ZM22 44C24.8891 44 27.7499 43.431 30.419 42.3254C33.0882 41.2197 35.5135 39.5992 37.5564 37.5563C39.5992 35.5135 41.2197 33.0882 42.3254 30.419C43.431 27.7499 44 24.8891 44 22H27.5C24.4624 22 22 24.4624 22 27.5V44Z" fill="#0C6291"/>
<path d="M185.446 40.4795V7.52051H191.752V21.0996C193.334 19.0781 195.605 18.0674 198.564 18.0674C201.333 18.0674 203.493 18.9243 205.046 20.6382C206.599 22.3374 207.375 24.7178 207.375 27.7793V40.4795H201.069V29.4492C201.069 27.6182 200.666 26.2046 199.86 25.2085C199.055 24.2124 197.927 23.7144 196.477 23.7144C194.997 23.7144 193.84 24.2197 193.005 25.2305C192.17 26.2412 191.752 27.6475 191.752 29.4492V40.4795H185.446Z" fill="#101619"/>
<path d="M183.079 36.9858C182.01 38.2163 180.699 39.1831 179.146 39.8862C177.593 40.5747 175.887 40.9189 174.026 40.9189C171.771 40.9189 169.749 40.4282 167.962 39.4468C166.189 38.4507 164.791 37.0884 163.765 35.3599C162.754 33.6313 162.249 31.6758 162.249 29.4932C162.249 27.2959 162.754 25.3403 163.765 23.6265C164.791 21.8979 166.189 20.543 167.962 19.5615C169.749 18.5654 171.771 18.0674 174.026 18.0674C175.872 18.0674 177.571 18.4116 179.124 19.1001C180.677 19.7886 181.988 20.7407 183.057 21.9565L179.344 25.8457C178.772 25.1865 178.047 24.6738 177.168 24.3076C176.304 23.9268 175.396 23.7363 174.444 23.7363C173.345 23.7363 172.364 23.9854 171.5 24.4834C170.635 24.9668 169.954 25.6406 169.456 26.5049C168.958 27.3545 168.709 28.3359 168.709 29.4492C168.709 30.5771 168.958 31.5806 169.456 32.4595C169.954 33.3384 170.635 34.0269 171.5 34.5249C172.364 35.0083 173.345 35.25 174.444 35.25C175.396 35.25 176.312 35.0669 177.19 34.7007C178.069 34.3198 178.787 33.7998 179.344 33.1406L183.079 36.9858Z" fill="#101619"/>
<path d="M160.189 40.4795H153.883V29.0537C153.883 27.3838 153.488 26.0801 152.697 25.1426C151.92 24.2051 150.844 23.7363 149.467 23.7363C148.5 23.7363 147.643 23.9707 146.896 24.4395C146.164 24.8936 145.592 25.5454 145.182 26.395C144.772 27.23 144.567 28.2334 144.567 29.4053V40.4795H138.261V18.5068H143.358L143.578 22.0225C144.369 20.7334 145.424 19.752 146.742 19.0781C148.061 18.4043 149.584 18.0674 151.312 18.0674C154.066 18.0674 156.234 18.917 157.816 20.6162C159.398 22.3008 160.189 24.6152 160.189 27.5596V40.4795Z" fill="#101619"/>
<path d="M134.399 40.4795H129.28L129.06 36.9639C128.284 38.2529 127.251 39.2344 125.962 39.9082C124.688 40.582 123.193 40.9189 121.479 40.9189C118.667 40.9189 116.462 40.0547 114.866 38.3262C113.269 36.5977 112.471 34.2246 112.471 31.207V18.5068H118.777V29.7568C118.777 31.4707 119.18 32.8184 119.985 33.7998C120.806 34.7666 121.919 35.25 123.325 35.25C124.79 35.25 125.947 34.7446 126.797 33.7339C127.661 32.7085 128.093 31.3242 128.093 29.5811V18.5068H134.399V40.4795Z" fill="#101619"/>
<path d="M101.908 40.4795H95.6016V18.5068H101.095L101.314 22.3081C102.047 20.9751 103.043 19.9351 104.303 19.188C105.562 18.4409 107.005 18.0674 108.631 18.0674C109.1 18.0674 109.569 18.104 110.038 18.1772C110.521 18.2358 111.012 18.3311 111.51 18.4629L110.719 24.1318C109.752 23.8535 108.836 23.7144 107.972 23.7144C106.756 23.7144 105.687 23.9927 104.764 24.5493C103.856 25.0913 103.153 25.853 102.655 26.8345C102.157 27.8013 101.908 28.9365 101.908 30.2402V40.4795Z" fill="#101619"/>
<path d="M92.707 36.3486C91.1689 37.8428 89.3452 39.0146 87.2358 39.8643C85.1265 40.7139 82.834 41.1387 80.3584 41.1387C77.8535 41.1387 75.5464 40.7139 73.437 39.8643C71.3276 39 69.4893 37.7988 67.9219 36.2607C66.3691 34.708 65.1606 32.8916 64.2964 30.8115C63.4321 28.7314 63 26.4609 63 24C63 21.5391 63.4321 19.2686 64.2964 17.1885C65.1606 15.0938 66.3691 13.2773 67.9219 11.7393C69.4893 10.2012 71.3276 9.00732 73.437 8.15771C75.5464 7.29346 77.8535 6.86133 80.3584 6.86133C82.8193 6.86133 85.0972 7.28613 87.1919 8.13574C89.3013 8.98535 91.125 10.1646 92.6631 11.6733L87.939 16.4194C87.0161 15.2915 85.8882 14.4053 84.5552 13.7607C83.2368 13.1016 81.8013 12.772 80.2485 12.772C78.769 12.772 77.3994 13.0576 76.1396 13.6289C74.8945 14.1855 73.8032 14.9766 72.8657 16.002C71.9282 17.0127 71.2031 18.1992 70.6904 19.5615C70.1777 20.9238 69.9214 22.396 69.9214 23.978C69.9214 25.5894 70.1777 27.0762 70.6904 28.4385C71.2031 29.8008 71.9282 30.9946 72.8657 32.02C73.8032 33.0308 74.8945 33.8218 76.1396 34.3931C77.3994 34.9497 78.769 35.228 80.2485 35.228C81.8013 35.228 83.2368 34.9058 84.5552 34.2612C85.8735 33.6021 86.9941 32.7085 87.917 31.5806L92.707 36.3486Z" fill="#101619"/>
</svg>
