<svg width="64" height="65" viewBox="0 0 64 65" fill="none" xmlns="http://www.w3.org/2000/svg">
<path fill-rule="evenodd" clip-rule="evenodd" d="M32 64.5C49.6731 64.5 64 50.1731 64 32.5C64 14.8269 49.6731 0.5 32 0.5C14.3269 0.5 0 14.8269 0 32.5C0 50.1731 14.3269 64.5 32 64.5ZM29.3333 59.1667C33.1854 59.1667 36.9998 58.4079 40.5587 56.9338C44.1176 55.4597 47.3513 53.299 50.0751 50.5751C52.799 47.8513 54.9597 44.6176 56.4338 41.0587C57.9079 37.4998 58.6667 33.6854 58.6667 29.8333H36.6667C32.6166 29.8333 29.3333 33.1166 29.3333 37.1667V59.1667Z" fill="#0C6291"/>
</svg>
