<svg width="118" height="30" viewBox="0 0 118 30" fill="none" xmlns="http://www.w3.org/2000/svg">
<g clip-path="url(#clip0_826_2395)">
<path fill-rule="evenodd" clip-rule="evenodd" d="M8.7724 1.08177C10.4965 0.367624 12.3444 6.10352e-05 14.2105 6.10352e-05V10.658C14.2105 12.62 12.62 14.2106 10.6579 14.2106H0C0 12.3444 0.367563 10.4966 1.08171 8.77246C1.79586 7.04836 2.8426 5.4818 4.16216 4.16223C5.48174 2.84266 7.04829 1.79592 8.7724 1.08177Z" fill="#0C6291"/>
<path fill-rule="evenodd" clip-rule="evenodd" d="M24.5619 1.0818C26.286 0.367655 28.1339 9.15527e-05 30.0001 9.15527e-05V10.658C30.0001 12.62 28.4095 14.2106 26.4474 14.2106H15.7896C15.7896 12.3445 16.1571 10.4966 16.8713 8.77249C17.5854 7.04839 18.6321 5.48183 19.9517 4.16226C21.2713 2.84269 22.8378 1.79595 24.5619 1.0818Z" fill="#0C6291"/>
<path fill-rule="evenodd" clip-rule="evenodd" d="M21.2276 28.9184C19.5035 29.6325 17.6556 30.0001 15.7895 30.0001V19.3422C15.7895 17.3801 17.38 15.7896 19.3421 15.7896H30C30 17.6557 29.6324 19.5036 28.9183 21.2277C28.2041 22.9518 27.1574 24.5184 25.8378 25.8379C24.5183 27.1575 22.9517 28.2042 21.2276 28.9184Z" fill="#0C6291"/>
<path fill-rule="evenodd" clip-rule="evenodd" d="M5.43805 28.9184C3.71395 29.6325 1.86608 30.0001 -7.72476e-05 30.0001V19.3422C-7.72476e-05 17.3801 1.59049 15.7896 3.55255 15.7896H14.2104C14.2104 17.6557 13.8429 19.5036 13.1287 21.2277C12.4146 22.9518 11.3679 24.5184 10.0483 25.8379C8.72871 27.1575 7.16216 28.2042 5.43805 28.9184Z" fill="#0C6291"/>
</g>
<path fill-rule="evenodd" clip-rule="evenodd" d="M113.662 23.7321H117.492V15.26C117.492 13.7995 117.191 12.5381 116.588 11.4759C115.996 10.4035 115.153 9.57621 114.061 8.99404C112.968 8.40166 111.676 8.10547 110.185 8.10547C109.194 8.10547 108.167 8.24335 107.105 8.51911L105.513 12.2726H106.513C106.696 12.1923 106.883 12.1208 107.074 12.0581C107.769 11.8334 108.469 11.721 109.173 11.721C109.909 11.721 110.573 11.8436 111.165 12.0887C111.768 12.3338 112.237 12.6811 112.574 13.1305C112.922 13.5697 113.095 14.0957 113.095 14.7085V15.1068C112.503 14.831 111.86 14.6166 111.165 14.4634C110.481 14.3102 109.796 14.2335 109.112 14.2335C107.948 14.2335 106.906 14.448 105.987 14.877C105.078 15.2957 104.363 15.8779 103.842 16.6235C103.321 17.3691 103.061 18.2321 103.061 19.2126C103.061 20.142 103.301 20.9744 103.781 21.7098C104.261 22.435 104.919 23.0069 105.757 23.4257C106.594 23.8342 107.549 24.0385 108.622 24.0385C109.613 24.0385 110.522 23.8546 111.349 23.4869C112.176 23.1091 112.871 22.5831 113.432 21.909L113.662 23.7321ZM111.257 20.2697C110.726 20.525 110.169 20.6527 109.587 20.6527C109.107 20.6527 108.678 20.571 108.3 20.4076C107.922 20.234 107.621 19.9991 107.396 19.7029C107.182 19.3965 107.074 19.0543 107.074 18.6764C107.074 18.0942 107.34 17.6193 107.871 17.2516C108.402 16.8839 109.087 16.7001 109.924 16.7001C110.486 16.7001 111.037 16.7869 111.579 16.9605C112.13 17.124 112.631 17.3589 113.08 17.6653V17.7725C113.06 18.3036 112.881 18.7888 112.544 19.2279C112.217 19.6671 111.788 20.0144 111.257 20.2697Z" fill="#101619"/>
<path d="M101.488 23.5319C100.313 24.0017 99.8008 24.0078 98.6977 24.0078C97.5538 24.0078 96.5426 23.7678 95.6643 23.2878C94.7961 22.7975 94.1169 22.1183 93.6267 21.2502C93.1364 20.3718 93.1211 20.0705 93.1211 18.2781V8.38124V4.1835H97.2882V8.38124H101.532L99.8177 12.3032H97.2882V17.4202C97.2882 18.2577 97.518 18.9113 97.9776 19.3811C98.4373 19.8407 99.0092 20.0705 99.6935 20.0705C100.317 20.0705 100.896 20.1288 101.488 19.7407V23.5319Z" fill="#101619"/>
<path fill-rule="evenodd" clip-rule="evenodd" d="M87.2506 23.7321H91.0807V15.26C91.0807 13.7995 90.7794 12.5381 90.1768 11.4759C89.5844 10.4035 88.7418 9.57621 87.6489 8.99404C86.5561 8.40166 85.2641 8.10547 83.7729 8.10547C82.7822 8.10547 81.7557 8.24335 80.6935 8.51911L79.1011 12.2726H80.1016C80.2847 12.1923 80.4718 12.1208 80.6629 12.0581C81.3574 11.8334 82.057 11.721 82.7617 11.721C83.4971 11.721 84.161 11.8436 84.7534 12.0887C85.356 12.3338 85.8258 12.6811 86.1629 13.1305C86.5101 13.5697 86.6838 14.0957 86.6838 14.7085V15.1068C86.0914 14.831 85.4479 14.6166 84.7534 14.4634C84.0691 14.3102 83.3848 14.2335 82.7005 14.2335C81.5361 14.2335 80.4943 14.448 79.5751 14.877C78.6661 15.2957 77.9512 15.8779 77.4303 16.6235C76.9094 17.3691 76.6489 18.2321 76.6489 19.2126C76.6489 20.142 76.8889 20.9744 77.369 21.7098C77.849 22.435 78.5078 23.0069 79.3453 23.4257C80.1828 23.8342 81.1378 24.0385 82.2102 24.0385C83.2009 24.0385 84.1099 23.8546 84.9372 23.4869C85.7645 23.1091 86.4591 22.5831 87.0208 21.909L87.2506 23.7321ZM84.8453 20.2697C84.3142 20.525 83.7576 20.6527 83.1754 20.6527C82.6954 20.6527 82.2664 20.571 81.8885 20.4076C81.5106 20.234 81.2093 19.9991 80.9846 19.7029C80.7701 19.3965 80.6629 19.0543 80.6629 18.6764C80.6629 18.0942 80.9284 17.6193 81.4595 17.2516C81.9906 16.8839 82.6749 16.7001 83.5124 16.7001C84.0742 16.7001 84.6257 16.7869 85.167 16.9605C85.7186 17.124 86.219 17.3589 86.6684 17.6653V17.7725C86.648 18.3036 86.4693 18.7888 86.1322 19.2279C85.8054 19.6671 85.3764 20.0144 84.8453 20.2697Z" fill="#101619"/>
<path d="M72.6816 23.9935H68.2847V8.52228H72.1285L72.268 11.3237C72.7786 10.3943 73.4732 9.66906 74.3515 9.1482C75.2299 8.62735 76.1828 8.36703 77.3165 8.36703L75.4863 12.5339C75.4863 12.5339 75.4001 12.4479 74.6733 12.8863C74.04 13.2642 73.5498 13.7954 73.2025 14.4796C72.8552 15.1537 72.6816 15.9453 72.6816 16.8543V23.9935Z" fill="#101619"/>
<path d="M66.1892 23.5319C65.0147 24.0017 64.5019 24.0078 63.3989 24.0078C62.255 24.0078 61.2438 23.7678 60.3654 23.2878C59.4973 22.7975 58.8181 22.1183 58.3278 21.2502C57.8376 20.3718 57.8223 20.0705 57.8223 18.2781V8.38124V4.1835H61.9894V8.38124H66.2331L64.5189 12.3032H61.9894V17.4202C61.9894 18.2577 62.2192 18.9113 62.6788 19.3811C63.1384 19.8407 63.7104 20.0705 64.3947 20.0705C65.0177 20.0705 65.5968 20.1288 66.1892 19.7407V23.5319Z" fill="#101619"/>
<path d="M39 20.958L41.2368 17.3578C41.9415 17.9297 42.6207 18.3996 43.2744 18.7672C43.9383 19.1247 44.5919 19.3903 45.2354 19.5639C45.8788 19.7273 46.5376 19.809 47.2117 19.809C48.0084 19.809 48.6978 19.6967 49.28 19.472C49.8621 19.2473 50.3115 18.9255 50.6281 18.5068C50.955 18.088 51.1184 17.6029 51.1184 17.0514C51.1184 16.4079 50.9141 15.8666 50.5056 15.4274C50.097 14.9883 49.5608 14.6053 48.8969 14.2784C48.2433 13.9414 47.5334 13.6197 46.7674 13.3133C46.0218 13.0068 45.2711 12.6749 44.5153 12.3174C43.7697 11.9498 43.0803 11.5157 42.4471 11.0152C41.824 10.5148 41.3185 9.90706 40.9304 9.19212C40.5525 8.46696 40.3635 7.5886 40.3635 6.55704C40.3635 5.20887 40.7006 4.04453 41.3747 3.06404C42.059 2.08355 42.9935 1.32775 44.1783 0.79665C45.363 0.26555 46.7163 0 48.2382 0C49.3106 0 50.4239 0.142989 51.578 0.428966C52.7423 0.714943 53.9016 1.14901 55.0557 1.73118L53.202 5.54591C52.4768 5.10673 51.6955 4.75947 50.8579 4.50414C50.0204 4.2488 49.234 4.12113 48.4986 4.12113C47.8347 4.12113 47.2526 4.22327 46.7521 4.42754C46.2618 4.63181 45.8788 4.91778 45.6031 5.28547C45.3273 5.64294 45.1894 6.0668 45.1894 6.55704C45.1894 7.13921 45.3886 7.64478 45.7869 8.07374C46.1852 8.4925 46.701 8.86529 47.3343 9.19212C47.9777 9.51895 48.6671 9.84578 49.4025 10.1726C50.1583 10.4994 50.9192 10.8569 51.6852 11.245C52.4615 11.6331 53.1662 12.0927 53.7995 12.6238C54.4429 13.1447 54.9587 13.7729 55.3468 14.5082C55.7451 15.2334 55.9443 16.1066 55.9443 17.128C55.9443 18.4762 55.5868 19.6609 54.8719 20.6823C54.1569 21.6934 53.1611 22.4849 51.8844 23.0569C50.6077 23.6186 49.1216 23.8995 47.4262 23.8995C45.8737 23.8995 44.3877 23.6493 42.968 23.1488C41.5483 22.6484 40.2256 21.9181 39 20.958Z" fill="#101619"/>
<defs>
<clipPath id="clip0_826_2395">
<rect width="30" height="30" fill="white"/>
</clipPath>
</defs>
</svg>
