<svg width="1440" height="56" viewBox="0 0 1440 56" fill="none" xmlns="http://www.w3.org/2000/svg">
<g opacity="0.4">
<path fill-rule="evenodd" clip-rule="evenodd" d="M199.967 41.7605C142.976 34.8515 84.8426 27.8041 0 27.8041V28.8659C84.7038 28.8659 142.606 35.8868 199.526 42.7886C226.484 46.0573 253.221 49.2993 282.48 51.7562C373.477 59.3969 488.522 59.3889 709.724 28.8549C930.783 -1.65924 1113.25 -1.65813 1240.45 5.96931C1304.05 9.78305 1353.83 15.5034 1387.7 20.2691C1404.64 22.652 1417.6 24.7962 1426.33 26.3441C1430.69 27.118 1433.99 27.7429 1436.2 28.1739C1437.31 28.3895 1438.14 28.5566 1438.69 28.6696C1438.97 28.7261 1439.18 28.7691 1439.32 28.798L1439.47 28.8304L1439.51 28.8385L1439.52 28.8405C1439.52 28.8405 1439.52 28.8411 1439.76 28.335C1440 27.8289 1440 27.8281 1440 27.8281L1439.99 27.8259L1439.95 27.8174L1439.79 27.784C1439.65 27.7546 1439.44 27.711 1439.16 27.6538C1438.59 27.5396 1437.76 27.3713 1436.64 27.1546C1434.42 26.7212 1431.11 26.094 1426.73 25.3178C1417.98 23.7654 1405 21.6169 1388.03 19.2301C1354.1 14.4565 1304.26 8.72954 1240.59 4.91179C1113.26 -2.72374 930.633 -2.72264 709.404 27.815C488.318 58.3329 373.455 58.3249 282.678 50.7027C253.565 48.2581 226.893 45.0248 199.967 41.7605Z" fill="#0C6291"/>
</g>
</svg>
